<svg xmlns="http://www.w3.org/2000/svg" viewBox="0 0 128.88 128.88" width="{{ .width }}" height="{{ .height }}"><path d="M119.56006,0H9.32007A9.34218,9.34218,0,0,0,0,9.32007v110.24A9.34223,9.34223,0,0,0,9.32007,128.88h110.24a9.34228,9.34228,0,0,0,9.31994-9.31994V9.32007A9.34223,9.34223,0,0,0,119.56006,0ZM38.47,109.59009H19.29V48.53H38.47ZM28.93994,39.98A11.015,11.015,0,1,1,39.95,28.97,11.01084,11.01084,0,0,1,28.93994,39.98ZM110,109.59009H90.82007v-26.77c0-2.03.06994-4.22009,0-6.37012C90.61,69.80005,89.04,63.53,79.71,63.71c-6.02.11011-9.25,4.68005-9.91992,10.53-.31006,2.68994-.26,8.3501-.26,8.3501v27H50.24V48.53H68.65v8.95c.25-.38989.53992-.82007.88-1.29,2.43994-3.37988,6.73-8.28,13.90991-8.93994C87.89,46.84009,92.87,46.89,97.29,48.53c6.7,2.48,12.13989,8.82,12.71,23.93994Z"/></svg>
